# xmcd
#
# Track frame offsets:
#	150
#	5932
#	20309
#	27349
#	39902
#	51046
#	70111
#	80376
#	110424
#
# Disc length: 1682 seconds
#
# Revision: 0
# Processed by: cddbd v1.5PL3 Copyright (c) Steve Scherf et al.
# Submitted via: dBpowerAMP V4.0
#
DISCID=67069009
DTITLE=Dwight Diller - Dwight Diller
DYEAR=1900
DGENRE=Country
TTITLE0=Barlow Knife
TTITLE1=Elswick's Farewell
TTITLE2=Jimmy Johnson
TTITLE3=Jay Legg
TTITLE4=Muskrat
TTITLE5=I Wanna Die Easy, Lord
TTITLE6=The John Henry Blues
TTITLE7=Wild Bill Jones
TTITLE8=DATA
EXTD=
EXTT0=
EXTT1=
EXTT2=
EXTT3=
EXTT4=
EXTT5=
EXTT6=
EXTT7=
EXTT8=
PLAYORDER=
